<svg width="174" height="190" viewBox="0 0 174 190" fill="none" xmlns="http://www.w3.org/2000/svg">
<path d="M172.039 119.849L153.923 102.114V78.6195C153.902 62.3835 147.733 46.7317 136.608 34.6907C125.482 22.6497 110.192 15.0748 93.6923 13.4308V0H80.3077V13.4308C63.8083 15.0748 48.5176 22.6497 37.3924 34.6907C26.2672 46.7317 20.0977 62.3835 20.0769 78.6195V102.114L1.96085 119.849C0.705708 121.077 0.000379035 122.743 0 124.481V144.136C0 145.873 0.70508 147.54 1.96013 148.768C3.21518 149.997 4.9174 150.687 6.69231 150.687H53.5385V155.778C53.3929 164.09 56.3854 172.162 61.9425 178.447C67.4997 184.732 75.2306 188.789 83.6538 189.84C88.3062 190.292 93.0036 189.785 97.4439 188.353C101.884 186.92 105.969 184.594 109.436 181.523C112.903 178.453 115.675 174.706 117.574 170.523C119.473 166.341 120.456 161.816 120.462 157.239V150.687H167.308C169.083 150.687 170.785 149.997 172.04 148.768C173.295 147.54 174 145.873 174 144.136V124.481C174 122.743 173.294 121.077 172.039 119.849ZM107.077 157.239C107.077 162.452 104.962 167.451 101.197 171.137C97.4314 174.823 92.3247 176.894 87 176.894C81.6753 176.894 76.5686 174.823 72.8035 171.137C69.0383 167.451 66.9231 162.452 66.9231 157.239V150.687H107.077V157.239ZM160.615 137.584H13.3846V127.193L31.5007 109.458C32.7558 108.23 33.4612 106.563 33.4615 104.826V78.6195C33.4615 64.7187 39.1022 51.3873 49.1426 41.5579C59.183 31.7286 72.8007 26.2065 87 26.2065C101.199 26.2065 114.817 31.7286 124.857 41.5579C134.898 51.3873 140.538 64.7187 140.538 78.6195V104.826C140.539 106.563 141.244 108.23 142.499 109.458L160.615 127.193V137.584Z" fill="white"/>
</svg>
